# WaveFront *.obj file (generated by CINEMA 4D)

mtllib ./tr_adminvt.mtl

v -11.26119995117188 9.98131465911865 -11.26119995117188
v -11.26119995117188 17.7292423248291 -11.26119995117188
v 111.26119995117188 9.98131465911865 -11.26119995117188
v 111.26119995117188 17.7292423248291 -11.26119995117188
v 111.26119995117188 9.98131465911865 111.26119995117188
v 111.26119995117188 17.7292423248291 111.26119995117188
v -11.26119995117188 9.98131465911865 111.26119995117188
v -11.26119995117188 17.7292423248291 111.26119995117188
# 8 vertices

vn 0 0 -1
vn 1 0 0
vn 0 0 1
vn -1 0 0
vn 0 1 0
vn 0 -1 0
# 6 normals

vt 0 0 0
vt 0 1 0
vt 1 1 0
vt 1 0 0
# 4 texture coordinates

o s
usemtl default
f 1/1/1 2/2/1 4/3/1 3/4/1
f 3/1/2 4/2/2 6/3/2 5/4/2
f 5/1/3 6/2/3 8/3/3 7/4/3
f 7/1/4 8/2/4 2/3/4 1/4/4
f 2/1/5 8/2/5 6/3/5 4/4/5
f 7/1/6 1/2/6 3/3/6 5/4/6

v 41.35602569580078 14.97139358520508 52.28252792358398
v 41.35602569580078 115.47624969482422 48.74134826660156
v 62.35602569580078 14.97139358520508 52.28252792358398
v 62.35602569580078 115.47624969482422 48.74134826660156
v 62.35602569580078 15.91690349578857 79.11775970458984
v 62.35602569580078 116.4217529296875 75.57658386230469
v 41.35602569580078 15.91690349578857 79.11775970458984
v 41.35602569580078 116.4217529296875 75.57658386230469
v 40.37014770507812 16.92430877685547 11.05965423583984
v 40.37014770507812 116.59701538085938 21.86136627197266
v 61.37014770507812 16.92430877685547 11.05965423583984
v 61.37014770507812 116.59701538085938 21.86136627197266
v 61.37014770507812 14.04020309448242 37.67270278930664
v 61.37014770507812 113.71291351318359 48.47441864013672
v 40.37014770507812 14.04020309448242 37.67270278930664
v 40.37014770507812 113.71291351318359 48.47441864013672
v 37.35197830200195 127.80283355712891 -5.5100359916687
v 37.35197830200195 205.85713195800781 3.31988310813904
v 64.08190155029297 127.80283355712891 -5.5100359916687
v 64.08190155029297 205.85713195800781 3.31988310813904
v 64.08190155029297 125.49019622802734 14.93307971954346
v 64.08190155029297 203.54449462890625 23.76299858093262
v 37.35197830200195 125.49019622802734 14.93307971954346
v 37.35197830200195 203.54449462890625 23.76299858093262
v 37.28014373779297 126.96495819091797 78.80225372314453
v 37.28014373779297 203.35052490234375 74.75623321533203
v 64.01007080078125 126.96495819091797 78.80225372314453
v 64.01007080078125 203.35052490234375 74.75623321533203
v 64.01007080078125 128.05317687988281 99.34696197509766
v 64.01007080078125 204.43873596191406 95.30094146728516
v 37.28014373779297 128.05317687988281 99.34696197509766
v 37.28014373779297 204.43873596191406 95.30094146728516
v 40.09833908081055 114.80928039550781 22.76334762573242
v 40.09833908081055 203.43070983886719 22.76334762573242
v 63.56193161010742 114.80928039550781 22.76334762573242
v 63.56193161010742 203.43070983886719 22.76334762573242
v 63.56193161010742 114.80928039550781 76.05258178710938
v 63.56193161010742 203.43070983886719 76.05258178710938
v 40.09833908081055 114.80928039550781 76.05258178710938
v 40.09833908081055 203.43070983886719 76.05258178710938
v 25 202.75439453125 25
v 25 252.75439453125 25
v 75 202.75439453125 25
v 75 252.75439453125 25
v 75 202.75439453125 75
v 75 252.75439453125 75
v 25 202.75439453125 75
v 25 252.75439453125 75
# 48 vertices

vn 0 0.14268125593662 -0.98976868391037
vn 0 -0.14268127083778 0.98976868391037
vn 0 0.98976868391037 0.14268124103546
vn 0 -0.98976868391037 -0.14268125593662
vn 0 0.14732754230499 -0.98908776044846
vn 0 -0.14732752740383 0.98908776044846
vn 0 0.9890878200531 0.1473271548748
vn 0 -0.98908776044846 -0.14732751250267
vn 0 -0.01769869215786 -0.99984335899353
vn 0 0.01769865490496 0.99984335899353
vn 0 0.99984335899353 -0.01769925281405
vn 0 -0.99984335899353 0.0176986977458
vn 0 0.0352120809257 -0.99937987327576
vn 0 -0.03521205484867 0.99937987327576
vn 0 0.99937987327576 0.03521197661757
vn 0 -0.99937987327576 -0.03521204739809
vn 0 0.03521209582686 -0.99937987327576
vn 0 -0.03521206974983 0.99937987327576
vn 0 0.99937987327576 0.03521209582686
vn 0 -0.99937987327576 -0.03521179035306
# 20 normals

vt 0.00312744453549 0.00820207595825 0
vt 0.00312744453549 0.35991394519806 0
vt 0.06324008107185 0.35991394519806 0
vt 0.06324008107185 0.00820207595825 0
vt 0.06505492329597 0.00245547294617 0
vt 0.06505492329597 0.36553692817688 0
vt 0.126320540905 0.36553692817688 0
vt 0.126320540905 0.00245547294617 0
vt 0.13080325722694 0.00300550460815 0
vt 0.13080325722694 0.34158563613892 0
vt 0.18667475879192 0.34158563613892 0
vt 0.18667475879192 0.00300550460815 0
vt 0.18749964237213 0.00980758666992 0
vt 0.18749964237213 0.36288225650787 0
vt 0.24649280309677 0.36288225650787 0
vt 0.24649280309677 0.00980758666992 0
vt 0.00465211691335 0.02200889587402 0
vt 0.00465211691335 1.02255511283875 0
vt 1.00519859790802 1.02255511283875 0
vt 1.00519859790802 0.02200889587402 0
vt 0.13118505477905 0.00980913639069 0
vt 0.13118505477905 0.36985921859741 0
vt 0.18836009502411 0.36985921859741 0
vt 0.18836009502411 0.00980913639069 0
vt 0.06049367785454 0.00497150421143 0
vt 0.06049367785454 0.37202763557434 0
vt 0.12611213326454 0.37202763557434 0
vt 0.12611213326454 0.00497150421143 0
vt 0.13177587091923 0.00213885307312 0
vt 0.13177587091923 0.35667455196381 0
vt 0.18925413489342 0.35667455196381 0
vt 0.18925413489342 0.00213885307312 0
vt 0.18796247243881 0.00334644317627 0
vt 0.18796247243881 0.36886620521545 0
vt 0.24417686462402 0.36886620521545 0
vt 0.24417686462402 0.00334644317627 0
vt 0.70387089252472 0.41153931617737 0
vt 0.70387089252472 0.47783613204956 0
vt 0.73536312580109 0.47783613204956 0
vt 0.73536312580109 0.41153931617737 0
vt 0.69174408912659 0.68957841396332 0
vt 0.69174408912659 0.74695891141891 0
vt 0.75173008441925 0.74695891141891 0
vt 0.75173008441925 0.68957841396332 0
vt 0.63369131088257 0.00989031791687 0
vt 0.63369131088257 0.3654693365097 0
vt 0.68846613168716 0.3654693365097 0
vt 0.68846613168716 0.00989031791687 0
vt 0.69297617673874 0.00757539272308 0
vt 0.69249075651169 0.36902582645416 0
vt 0.74794894456863 0.3660227060318 0
vt 0.74843430519104 0.00457227230072 0
vt 0.75283735990524 0.00003242492676 0
vt 0.75283735990524 0.37040448188782 0
vt 0.8119660615921 0.37040448188782 0
vt 0.8119660615921 0.00003242492676 0
vt 0.81681323051453 0.00674879550934 0
vt 0.81710529327393 0.3693413734436 0
vt 0.87015479803085 0.37019371986389 0
vt 0.86793553829193 0.0096937417984 0
vt 0.6942166686058 0.48292350769043 0
vt 0.74790269136429 0.48292350769043 0
vt 0.74790269136429 0.38197040557861 0
vt 0.6942166686058 0.38197040557861 0
vt 0.75488895177841 0.3837308883667 0
vt 0.75488895177841 0.48423480987549 0
vt 0.80957174301147 0.48423480987549 0
vt 0.80957174301147 0.3837308883667 0
vt 0.75382536649704 0.00429356098175 0
vt 0.75382536649704 0.37128758430481 0
vt 0.81166982650757 0.37128758430481 0
vt 0.81166982650757 0.00429356098175 0
vt 0.81528043746948 0.00051236152649 0
vt 0.81528043746948 0.36684834957123 0
vt 0.87388747930527 0.36859214305878 0
vt 0.87388747930527 0.00225615501404 0
vt 0.62867295742035 0.00166034698486 0
vt 0.62867295742035 0.37172675132751 0
vt 0.68974006175995 0.37172675132751 0
vt 0.68974006175995 0.00166034698486 0
vt 0.69056576490402 0.00317811965942 0
vt 0.69056576490402 0.37185108661652 0
vt 0.75089681148529 0.37185108661652 0
vt 0.75089681148529 0.00317811965942 0
vt 0.68925058841705 0.37512266635895 0
vt 0.68925058841705 0.48963689804077 0
vt 0.74960505962372 0.48963689804077 0
vt 0.74960505962372 0.37512266635895 0
vt 0.75459188222885 0.38307952880859 0
vt 0.75459188222885 0.48385322093964 0
vt 0.80859488248825 0.48385322093964 0
vt 0.80859488248825 0.38307952880859 0
vt 0.44042930006981 0.00360012054443 0
vt 0.44042930006981 0.36758840084076 0
vt 0.50010085105896 0.36758840084076 0
vt 0.50010085105896 0.00360012054443 0
vt 0.31097221374512 0.00378453731537 0
vt 0.31180003285408 0.3711724281311 0
vt 0.43718755245209 0.37029528617859 0
vt 0.43635973334312 0.00290668010712 0
vt 0.2530329823494 0.00710558891296 0
vt 0.2530329823494 0.36879527568817 0
vt 0.31028890609741 0.36879527568817 0
vt 0.31028890609741 0.00710558891296 0
vt 0.50820064544678 0.00346851348877 0
vt 0.50743943452835 0.37146580219269 0
vt 0.62271785736084 0.3723441362381 0
vt 0.62347906827927 0.00434708595276 0
vt 0.31447580456734 0.49477744102478 0
vt 0.43705022335052 0.49477744102478 0
vt 0.43705022335052 0.37195706367493 0
vt 0.31447580456734 0.37195706367493 0
vt 0.29605773091316 0.06774377822876 0
vt 0.29605773091316 0.16226661205292 0
vt 0.43162870407104 0.16226661205292 0
vt 0.43162870407104 0.06774377822876 0
vt 0.00186080101412 0.50388616323471 0
vt 0.00186080101412 0.74155414104462 0
vt 0.12400132417679 0.74155414104462 0
vt 0.12400132417679 0.50388616323471 0
vt 0.12610848248005 0.50015294551849 0
vt 0.12544299662113 0.75306963920593 0
vt 0.25066640973091 0.753098487854 0
vt 0.2487368285656 0.50015306472778 0
vt 0.25326403975487 0.50370931625366 0
vt 0.25326403975487 0.73975640535355 0
vt 0.37667533755302 0.73975640535355 0
vt 0.37667533755302 0.50370931625366 0
vt 0.38394895195961 0.51240903139114 0
vt 0.38350880146027 0.73098814487457 0
vt 0.49429327249527 0.73185646533966 0
vt 0.49473336338997 0.51327735185623 0
vt 0.12519386410713 0.87551653385162 0
vt 0.12519386410713 0.99995541572571 0
vt 0.24963268637657 0.99995541572571 0
vt 0.24963268637657 0.87551653385162 0
vt 0.25758615136147 0.87575614452362 0
vt 0.37334862351418 0.87575614452362 0
vt 0.37334862351418 0.75999367237091 0
vt 0.25758615136147 0.75999367237091 0
# 140 texture coordinates

o skin
usemtl Mat.
f 9/5/1 10/6/1 12/7/1 11/8/1
f 11/9/2 12/10/2 14/11/2 13/12/2
f 13/13/3 14/14/3 16/15/3 15/16/3
f 15/17/4 16/18/4 10/19/4 9/20/4
f 10/21/5 16/22/5 14/23/5 12/24/5
f 15/21/6 9/22/6 11/23/6 13/24/6
f 17/25/7 18/26/7 20/27/7 19/28/7
f 19/29/2 20/30/2 22/31/2 21/32/2
f 21/33/8 22/34/8 24/35/8 23/36/8
f 23/37/4 24/38/4 18/39/4 17/40/4
f 18/41/9 24/42/9 22/43/9 20/44/9
f 23/45/10 17/46/10 19/47/10 21/48/10
f 25/49/11 26/50/11 28/51/11 27/52/11
f 27/53/2 28/54/2 30/55/2 29/56/2
f 29/57/12 30/58/12 32/59/12 31/60/12
f 31/61/4 32/62/4 26/63/4 25/64/4
f 26/65/13 32/66/13 30/67/13 28/68/13
f 31/69/14 25/70/14 27/71/14 29/72/14
f 33/73/15 34/74/15 36/75/15 35/76/15
f 35/77/2 36/78/2 38/79/2 37/80/2
f 37/81/16 38/82/16 40/83/16 39/84/16
f 39/85/4 40/86/4 34/87/4 33/88/4
f 34/89/17 40/90/17 38/91/17 36/92/17
f 39/93/18 33/94/18 35/95/18 37/96/18
f 41/97/19 42/98/19 44/99/19 43/100/19
f 43/101/2 44/102/2 46/103/2 45/104/2
f 45/105/20 46/106/20 48/107/20 47/108/20
f 47/109/4 48/110/4 42/111/4 41/112/4
f 42/113/21 48/114/21 46/115/21 44/116/21
f 47/117/22 41/118/22 43/119/22 45/120/22
f 49/121/23 50/122/23 52/123/23 51/124/23
f 51/125/2 52/126/2 54/127/2 53/128/2
f 53/129/24 54/130/24 56/131/24 55/132/24
f 55/133/4 56/134/4 50/135/4 49/136/4
f 50/137/25 56/138/25 54/139/25 52/140/25
f 55/141/26 49/142/26 51/143/26 53/144/26

